# xmcd
#
# Track frame offsets: 
#        150
#        13507
#        27840
#        40807
#        56477
#        65934
#        80740
#        95519
#        110323
#        122578
#        132142
#        146208
#        159461
#        167994
#        181029
#        192855
#
# Disc length: 2730 seconds
#
# Revision: 2
# Processed by: cddbd v1.5.2PL0 Copyright (c) Steve Scherf et al.
# Submitted via: ExactAudioCopy v0.99pb5
#
DISCID=d90aa810
DTITLE=Various Artist - COUNTRY FESTIVAL - VOL. 1
DYEAR=1900
DGENRE=Country
TTITLE0=BOBBY BARE - Detroit City
TTITLE1=THE BELLAMY BROTHERS - If I Said You Had A Beautiful Body
TTITLE2=KENNY ROGERS - Ruby, Don´t Take You Love To Town
TTITLE3=BILLIE JO SPEARS - Blanket On The Ground
TTITLE4=DONNA FARGO - Sticks And Stones
TTITLE5=FRANKIE LAINE - Sixteens Tons
TTITLE6=JEANNIE C. RILEY - Harper Valley P.T.A.
TTITLE7=WILLIE NELSON - Face Of The Fighter
TTITLE8=FREDDY FENDER - Wasted Days And Wasted Nights
TTITLE9=DOLLY PARTON - Release Me
TTITLE10=SAMMY´S SALOON - Country Guitar No.1
TTITLE11=PATTI PAGE - Tennessee Waltz
TTITLE12=CONWAY TWITTY - Blue Is The Way That I Feel
TTITLE13=STU STEVENS - Love Me Tender
TTITLE14=JOHNNY EARLE - Skiff-A-Billy Line Dance
TTITLE15=RAY PRICE - Let It Rain. Let Her Cry
EXTD=
EXTT0=
EXTT1=
EXTT2=
EXTT3=
EXTT4=
EXTT5=
EXTT6=
EXTT7=
EXTT8=
EXTT9=
EXTT10=
EXTT11=
EXTT12=
EXTT13=
EXTT14=
EXTT15=
PLAYORDER=
